<mxfile host="app.diagrams.net" agent="Mozilla/5.0 (X11; Linux x86_64) AppleWebKit/537.36 (KHTML, like Gecko) Chrome/138.0.0.0 Safari/537.36" version="28.0.4">
  <diagram name="Page-1" id="rvsbLovBX4tjMUrJJiiB">
    <mxGraphModel dx="1426" dy="756" grid="1" gridSize="10" guides="1" tooltips="1" connect="1" arrows="1" fold="1" page="1" pageScale="1" pageWidth="850" pageHeight="1100" math="0" shadow="0">
      <root>
        <mxCell id="0" />
        <mxCell id="1" parent="0" />
        <mxCell id="9YHRPa9IJKzYPBxGWIw7-1" value="Images, Containers, Volumes, Networks" style="whiteSpace=wrap;html=1;aspect=fixed;" vertex="1" parent="1">
          <mxGeometry x="50" y="140" width="180" height="180" as="geometry" />
        </mxCell>
        <mxCell id="9YHRPa9IJKzYPBxGWIw7-2" value="Docker" style="text;html=1;align=center;verticalAlign=middle;whiteSpace=wrap;rounded=0;" vertex="1" parent="1">
          <mxGeometry x="90" y="110" width="60" height="30" as="geometry" />
        </mxCell>
        <mxCell id="9YHRPa9IJKzYPBxGWIw7-3" value="" style="whiteSpace=wrap;html=1;fillColor=none;" vertex="1" parent="1">
          <mxGeometry x="30" y="100" width="480" height="250" as="geometry" />
        </mxCell>
        <mxCell id="9YHRPa9IJKzYPBxGWIw7-4" value="LInux Server" style="text;html=1;align=center;verticalAlign=middle;whiteSpace=wrap;rounded=0;" vertex="1" parent="1">
          <mxGeometry x="50" y="70" width="100" height="30" as="geometry" />
        </mxCell>
        <mxCell id="9YHRPa9IJKzYPBxGWIw7-5" value="" style="whiteSpace=wrap;html=1;aspect=fixed;" vertex="1" parent="1">
          <mxGeometry x="640" y="175" width="80" height="80" as="geometry" />
        </mxCell>
        <mxCell id="9YHRPa9IJKzYPBxGWIw7-6" value="Git, VSC" style="whiteSpace=wrap;html=1;" vertex="1" parent="1">
          <mxGeometry x="810" y="100" width="180" height="230" as="geometry" />
        </mxCell>
        <mxCell id="9YHRPa9IJKzYPBxGWIw7-9" value="LInux Desktop" style="text;html=1;align=center;verticalAlign=middle;whiteSpace=wrap;rounded=0;" vertex="1" parent="1">
          <mxGeometry x="800" y="60" width="100" height="30" as="geometry" />
        </mxCell>
        <mxCell id="9YHRPa9IJKzYPBxGWIw7-10" value="Github" style="text;html=1;align=center;verticalAlign=middle;whiteSpace=wrap;rounded=0;" vertex="1" parent="1">
          <mxGeometry x="650" y="145" width="60" height="30" as="geometry" />
        </mxCell>
        <mxCell id="9YHRPa9IJKzYPBxGWIw7-11" value="Pull and Redeploy" style="whiteSpace=wrap;html=1;aspect=fixed;" vertex="1" parent="1">
          <mxGeometry x="310" y="150" width="130" height="130" as="geometry" />
        </mxCell>
        <mxCell id="9YHRPa9IJKzYPBxGWIw7-12" value="Portainer" style="text;html=1;align=center;verticalAlign=middle;whiteSpace=wrap;rounded=0;" vertex="1" parent="1">
          <mxGeometry x="310" y="120" width="60" height="30" as="geometry" />
        </mxCell>
        <mxCell id="9YHRPa9IJKzYPBxGWIw7-13" value="" style="endArrow=classic;html=1;rounded=0;" edge="1" parent="1">
          <mxGeometry width="50" height="50" relative="1" as="geometry">
            <mxPoint x="630" y="200" as="sourcePoint" />
            <mxPoint x="440" y="200" as="targetPoint" />
          </mxGeometry>
        </mxCell>
        <mxCell id="9YHRPa9IJKzYPBxGWIw7-14" value="" style="endArrow=classic;html=1;rounded=0;" edge="1" parent="1">
          <mxGeometry width="50" height="50" relative="1" as="geometry">
            <mxPoint x="310" y="200" as="sourcePoint" />
            <mxPoint x="240" y="200" as="targetPoint" />
          </mxGeometry>
        </mxCell>
        <mxCell id="9YHRPa9IJKzYPBxGWIw7-15" value="" style="endArrow=classic;html=1;rounded=0;" edge="1" parent="1">
          <mxGeometry width="50" height="50" relative="1" as="geometry">
            <mxPoint x="800" y="200" as="sourcePoint" />
            <mxPoint x="720" y="200" as="targetPoint" />
          </mxGeometry>
        </mxCell>
        <mxCell id="9YHRPa9IJKzYPBxGWIw7-16" value="push" style="text;html=1;align=center;verticalAlign=middle;whiteSpace=wrap;rounded=0;" vertex="1" parent="1">
          <mxGeometry x="730" y="160" width="60" height="30" as="geometry" />
        </mxCell>
        <mxCell id="9YHRPa9IJKzYPBxGWIw7-21" value="pull" style="text;html=1;align=center;verticalAlign=middle;whiteSpace=wrap;rounded=0;" vertex="1" parent="1">
          <mxGeometry x="510" y="160" width="60" height="30" as="geometry" />
        </mxCell>
        <mxCell id="9YHRPa9IJKzYPBxGWIw7-22" value="" style="whiteSpace=wrap;html=1;aspect=fixed;" vertex="1" parent="1">
          <mxGeometry x="270" y="630" width="200" height="200" as="geometry" />
        </mxCell>
        <mxCell id="9YHRPa9IJKzYPBxGWIw7-23" value="katgpt-lab@github" style="text;html=1;align=center;verticalAlign=middle;whiteSpace=wrap;rounded=0;" vertex="1" parent="1">
          <mxGeometry x="250" y="590" width="110" height="30" as="geometry" />
        </mxCell>
        <mxCell id="9YHRPa9IJKzYPBxGWIw7-25" value="" style="whiteSpace=wrap;html=1;" vertex="1" parent="1">
          <mxGeometry x="610" y="590" width="240" height="330" as="geometry" />
        </mxCell>
        <mxCell id="9YHRPa9IJKzYPBxGWIw7-26" value="kat-e8@github" style="text;html=1;align=center;verticalAlign=middle;whiteSpace=wrap;rounded=0;" vertex="1" parent="1">
          <mxGeometry x="605" y="550" width="110" height="30" as="geometry" />
        </mxCell>
        <mxCell id="9YHRPa9IJKzYPBxGWIw7-27" value="" style="whiteSpace=wrap;html=1;" vertex="1" parent="1">
          <mxGeometry x="930" y="644.5" width="80" height="125.5" as="geometry" />
        </mxCell>
        <mxCell id="9YHRPa9IJKzYPBxGWIw7-28" value="" style="endArrow=classic;html=1;rounded=0;" edge="1" parent="1">
          <mxGeometry width="50" height="50" relative="1" as="geometry">
            <mxPoint x="650" y="690" as="sourcePoint" />
            <mxPoint x="480" y="690" as="targetPoint" />
          </mxGeometry>
        </mxCell>
        <mxCell id="9YHRPa9IJKzYPBxGWIw7-29" value="fork" style="text;html=1;align=center;verticalAlign=middle;whiteSpace=wrap;rounded=0;" vertex="1" parent="1">
          <mxGeometry x="520" y="650" width="60" height="30" as="geometry" />
        </mxCell>
        <mxCell id="9YHRPa9IJKzYPBxGWIw7-30" value="" style="endArrow=classic;html=1;rounded=0;entryX=1.1;entryY=0.105;entryDx=0;entryDy=0;entryPerimeter=0;" edge="1" parent="1" target="9YHRPa9IJKzYPBxGWIw7-33">
          <mxGeometry width="50" height="50" relative="1" as="geometry">
            <mxPoint x="260" y="685" as="sourcePoint" />
            <mxPoint x="140" y="684.5" as="targetPoint" />
          </mxGeometry>
        </mxCell>
        <mxCell id="9YHRPa9IJKzYPBxGWIw7-31" value="clone" style="text;html=1;align=center;verticalAlign=middle;whiteSpace=wrap;rounded=0;" vertex="1" parent="1">
          <mxGeometry x="170" y="644.5" width="60" height="30" as="geometry" />
        </mxCell>
        <mxCell id="9YHRPa9IJKzYPBxGWIw7-32" value="Remote Machine" style="text;html=1;align=center;verticalAlign=middle;whiteSpace=wrap;rounded=0;" vertex="1" parent="1">
          <mxGeometry x="50" y="610" width="90" height="30" as="geometry" />
        </mxCell>
        <mxCell id="9YHRPa9IJKzYPBxGWIw7-33" value="git" style="whiteSpace=wrap;html=1;" vertex="1" parent="1">
          <mxGeometry x="75" y="674.5" width="50" height="95.5" as="geometry" />
        </mxCell>
        <mxCell id="9YHRPa9IJKzYPBxGWIw7-34" value="" style="endArrow=classic;html=1;rounded=0;" edge="1" parent="1">
          <mxGeometry width="50" height="50" relative="1" as="geometry">
            <mxPoint x="130" y="740" as="sourcePoint" />
            <mxPoint x="270" y="740" as="targetPoint" />
          </mxGeometry>
        </mxCell>
        <mxCell id="9YHRPa9IJKzYPBxGWIw7-35" value="push" style="text;html=1;align=center;verticalAlign=middle;whiteSpace=wrap;rounded=0;" vertex="1" parent="1">
          <mxGeometry x="170" y="707.25" width="60" height="30" as="geometry" />
        </mxCell>
        <mxCell id="9YHRPa9IJKzYPBxGWIw7-36" value="" style="endArrow=classic;html=1;rounded=0;" edge="1" parent="1">
          <mxGeometry width="50" height="50" relative="1" as="geometry">
            <mxPoint x="480" y="805" as="sourcePoint" />
            <mxPoint x="650" y="805" as="targetPoint" />
          </mxGeometry>
        </mxCell>
        <mxCell id="9YHRPa9IJKzYPBxGWIw7-37" value="pull request" style="text;html=1;align=center;verticalAlign=middle;whiteSpace=wrap;rounded=0;" vertex="1" parent="1">
          <mxGeometry x="495" y="770" width="110" height="30" as="geometry" />
        </mxCell>
        <mxCell id="9YHRPa9IJKzYPBxGWIw7-38" value="Portainer" style="text;html=1;align=center;verticalAlign=middle;whiteSpace=wrap;rounded=0;" vertex="1" parent="1">
          <mxGeometry x="910" y="610" width="110" height="30" as="geometry" />
        </mxCell>
        <mxCell id="9YHRPa9IJKzYPBxGWIw7-39" value="" style="whiteSpace=wrap;html=1;fillColor=none;" vertex="1" parent="1">
          <mxGeometry x="890" y="600" width="320" height="270" as="geometry" />
        </mxCell>
        <mxCell id="9YHRPa9IJKzYPBxGWIw7-40" value="" style="whiteSpace=wrap;html=1;aspect=fixed;" vertex="1" parent="1">
          <mxGeometry x="660" y="650" width="60" height="60" as="geometry" />
        </mxCell>
        <mxCell id="9YHRPa9IJKzYPBxGWIw7-41" value="Original Repo" style="text;html=1;align=center;verticalAlign=middle;whiteSpace=wrap;rounded=0;" vertex="1" parent="1">
          <mxGeometry x="660" y="610" width="60" height="30" as="geometry" />
        </mxCell>
        <mxCell id="9YHRPa9IJKzYPBxGWIw7-44" value="Merge" style="whiteSpace=wrap;html=1;aspect=fixed;" vertex="1" parent="1">
          <mxGeometry x="660" y="770" width="60" height="60" as="geometry" />
        </mxCell>
        <mxCell id="9YHRPa9IJKzYPBxGWIw7-46" value="" style="endArrow=classic;html=1;rounded=0;" edge="1" parent="1">
          <mxGeometry width="50" height="50" relative="1" as="geometry">
            <mxPoint x="689.5" y="760" as="sourcePoint" />
            <mxPoint x="689.5" y="710" as="targetPoint" />
          </mxGeometry>
        </mxCell>
        <mxCell id="9YHRPa9IJKzYPBxGWIw7-47" value="" style="endArrow=classic;html=1;rounded=0;" edge="1" parent="1">
          <mxGeometry width="50" height="50" relative="1" as="geometry">
            <mxPoint x="730" y="680" as="sourcePoint" />
            <mxPoint x="920" y="680" as="targetPoint" />
          </mxGeometry>
        </mxCell>
        <mxCell id="9YHRPa9IJKzYPBxGWIw7-48" value="" style="whiteSpace=wrap;html=1;aspect=fixed;" vertex="1" parent="1">
          <mxGeometry x="1110" y="670" width="80" height="80" as="geometry" />
        </mxCell>
        <mxCell id="9YHRPa9IJKzYPBxGWIw7-49" value="Docker" style="text;html=1;align=center;verticalAlign=middle;whiteSpace=wrap;rounded=0;" vertex="1" parent="1">
          <mxGeometry x="1120" y="630" width="60" height="30" as="geometry" />
        </mxCell>
        <mxCell id="9YHRPa9IJKzYPBxGWIw7-50" value="" style="endArrow=classic;html=1;rounded=0;entryX=0;entryY=0.5;entryDx=0;entryDy=0;" edge="1" parent="1" target="9YHRPa9IJKzYPBxGWIw7-48">
          <mxGeometry width="50" height="50" relative="1" as="geometry">
            <mxPoint x="1010" y="710" as="sourcePoint" />
            <mxPoint x="1060" y="660" as="targetPoint" />
          </mxGeometry>
        </mxCell>
        <mxCell id="9YHRPa9IJKzYPBxGWIw7-51" value="Linux Server" style="text;html=1;align=center;verticalAlign=middle;whiteSpace=wrap;rounded=0;" vertex="1" parent="1">
          <mxGeometry x="870" y="560" width="140" height="30" as="geometry" />
        </mxCell>
        <mxCell id="9YHRPa9IJKzYPBxGWIw7-52" value="" style="whiteSpace=wrap;html=1;aspect=fixed;" vertex="1" parent="1">
          <mxGeometry x="330" y="674.5" width="80" height="80" as="geometry" />
        </mxCell>
        <mxCell id="9YHRPa9IJKzYPBxGWIw7-53" value="Forked repo" style="text;html=1;align=center;verticalAlign=middle;whiteSpace=wrap;rounded=0;" vertex="1" parent="1">
          <mxGeometry x="335" y="644.5" width="60" height="30" as="geometry" />
        </mxCell>
      </root>
    </mxGraphModel>
  </diagram>
</mxfile>
